<?xml version="1.0" encoding="utf-8"?>
<!-- Generator: Adobe Illustrator 18.0.0, SVG Export Plug-In . SVG Version: 6.00 Build 0)  -->
<!DOCTYPE svg PUBLIC "-//W3C//DTD SVG 1.1//EN" "http://www.w3.org/Graphics/SVG/1.1/DTD/svg11.dtd">
<svg version="1.1" id="图层_1" xmlns="http://www.w3.org/2000/svg" xmlns:xlink="http://www.w3.org/1999/xlink" x="0px" y="0px"
	 viewBox="0 0 43 44" enable-background="new 0 0 43 44" xml:space="preserve">
<g>
	<path fill="#69B344" d="M33.7,21.5c0-0.3,0.1-0.7,0.1-1.1c0.1-5.7-4.5-10.3-10.2-10.3c-3.7,0-6.9,1.9-8.8,4.8
		c-0.5-0.2-1-0.3-1.6-0.3c-2.6,0-4.7,2.1-4.7,4.6c0,0.7,0.2,1.4,0.5,2.1c-3,0.4-5.4,3-5.4,6.1c0,3.4,2.7,6.2,6.2,6.3h0.1l22.9,0.2
		h0.1c3.4,0,6.2-2.7,6.3-6.2C39.1,24.5,36.8,21.9,33.7,21.5L33.7,21.5z"/>
</g>
<circle fill="none" stroke="#FFFFFF" stroke-width="2" stroke-miterlimit="10" cx="20.9" cy="20.5" r="3.4"/>
<path fill="none" stroke="#FFFFFF" stroke-width="2" stroke-linecap="round" stroke-miterlimit="10" d="M14.6,31.1
	c0-3.5,2.8-6.3,6.3-6.3s6.3,2.8,6.3,6.3"/>
<g>
	<path fill="#FFFFFF" d="M25.7,24.2c-0.3,0-0.5-0.2-0.5-0.5s0.2-0.5,0.5-0.5c1.3,0,2.3-1.1,2.3-2.6c0-1-0.6-2-1.4-2.4
		c-0.3-0.1-0.4-0.5-0.3-0.7c0.1-0.3,0.5-0.4,0.7-0.3c1.2,0.6,2.1,1.9,2.1,3.4C29.1,22.5,27.6,24.2,25.7,24.2z"/>
</g>
<path fill="none" stroke="#FFFFFF" stroke-linecap="round" stroke-miterlimit="10" d="M30.9,29.4"/>
<g>
	<path fill="#FFFFFF" d="M31.3,29.8c-0.3,0-0.5-0.2-0.5-0.5c-0.2-2.9-2.4-5.1-5.1-5.1c-0.3,0-0.5-0.2-0.5-0.5s0.2-0.5,0.5-0.5
		c3.2,0,5.9,2.6,6.2,6.1C31.9,29.5,31.7,29.8,31.3,29.8C31.3,29.8,31.3,29.8,31.3,29.8z"/>
</g>
</svg>
