<?xml version="1.0" encoding="utf-8"?>
<!-- Generator: Adobe Illustrator 18.0.0, SVG Export Plug-In . SVG Version: 6.00 Build 0)  -->
<!DOCTYPE svg PUBLIC "-//W3C//DTD SVG 1.1//EN" "http://www.w3.org/Graphics/SVG/1.1/DTD/svg11.dtd">
<svg version="1.1" id="图层_1" xmlns="http://www.w3.org/2000/svg" xmlns:xlink="http://www.w3.org/1999/xlink" x="0px" y="0px"
	 viewBox="0 0 42.2 42.2" enable-background="new 0 0 42.2 42.2" xml:space="preserve">
<g>
	<g>
		<path fill="#41A0D6" d="M33.5,20.2c0-0.3,0.1-0.7,0.1-1.1c0.1-5.7-4.5-10.3-10.2-10.3c-3.7,0-6.9,1.9-8.8,4.8
			c-0.5-0.2-1-0.3-1.6-0.3c-2.6,0-4.7,2.1-4.7,4.6c0,0.7,0.2,1.4,0.5,2.1c-3,0.4-5.4,3-5.4,6.1c0,3.4,2.7,6.2,6.2,6.3
			c0,0,0.1,0,0.1,0l22.9,0.2c0,0,0.1,0,0.1,0c3.4,0,6.2-2.7,6.3-6.2C38.9,23.2,36.6,20.6,33.5,20.2L33.5,20.2z M26.3,25.9"/>
	</g>
	<g>
		<path fill="#FFFFFF" d="M17.2,27.3l-6.5-3.1c-0.3-0.2-0.6-0.5-0.6-0.9l0-0.3c0-0.4,0.2-0.7,0.6-0.9l6.5-3.2
			c0.7-0.3,1.4,0.2,1.4,0.9l0,0.1c0,0.4-0.2,0.7-0.6,0.9l-3.3,1.5c-0.8,0.3-0.8,1.5,0,1.8l3.2,1.5c0.4,0.2,0.6,0.5,0.6,0.9v0
			C18.6,27.2,17.8,27.7,17.2,27.3z"/>
		<path fill="#FFFFFF" d="M24,17.9l-2.4,11.5c-0.1,0.5-0.5,0.8-1,0.8h0c-0.6,0-1.1-0.6-0.9-1.2l2.4-11.5c0.1-0.5,0.5-0.8,1-0.8h0
			C23.7,16.7,24.1,17.3,24,17.9z"/>
		<path fill="#FFFFFF" d="M25.1,26.5L25.1,26.5c0-0.4,0.2-0.7,0.6-0.9l3.2-1.4c0.8-0.3,0.8-1.5,0-1.8l-3.2-1.5
			c-0.4-0.2-0.6-0.5-0.6-0.9l0-0.1c0-0.7,0.8-1.2,1.5-0.9l6.5,3.3c0.3,0.2,0.5,0.5,0.5,0.9l0,0.3c0,0.4-0.2,0.7-0.6,0.9l-6.5,2.9
			C25.8,27.7,25.1,27.2,25.1,26.5z"/>
	</g>
</g>
</svg>
