<?xml version="1.0" encoding="utf-8"?>
<!-- Generator: Adobe Illustrator 18.0.0, SVG Export Plug-In . SVG Version: 6.00 Build 0)  -->
<!DOCTYPE svg PUBLIC "-//W3C//DTD SVG 1.1//EN" "http://www.w3.org/Graphics/SVG/1.1/DTD/svg11.dtd">
<svg version="1.1" id="图层_1" xmlns="http://www.w3.org/2000/svg" xmlns:xlink="http://www.w3.org/1999/xlink" x="0px" y="0px"
	 viewBox="0 0 42.2 42.2" enable-background="new 0 0 42.2 42.2" xml:space="preserve">
<g>
	<g>
		<path fill="#DD5655" d="M33.3,20.5c0-0.3,0.1-0.7,0.1-1c0.1-5.5-4.4-10.1-10-10.1c-3.6,0-6.8,1.9-8.6,4.7c-0.5-0.2-1-0.3-1.6-0.3
			c-2.5,0-4.6,2-4.6,4.5c0,0.7,0.2,1.4,0.5,2c-3,0.4-5.3,2.9-5.3,6c0,3.4,2.7,6.1,6,6.1c0,0,0.1,0,0.1,0l22.4,0.2c0,0,0.1,0,0.1,0
			c3.4,0,6.1-2.7,6.1-6C38.6,23.5,36.3,20.9,33.3,20.5L33.3,20.5z M26.2,26.1"/>
	</g>
	<g>
		<path fill="#FFFFFF" d="M19.9,27.2h-3c-0.3,0-0.5-0.1-0.6-0.3c-0.1-0.2-0.2-0.4-0.3-0.7c0-0.3,0.1-0.5,0.3-0.6
			c0.1-0.2,0.4-0.3,0.6-0.3h3v-1l-3,0c-0.3,0-0.5-0.1-0.6-0.3c-0.1-0.2-0.2-0.4-0.3-0.7c0-0.3,0.1-0.5,0.3-0.6
			c0.1-0.2,0.4-0.3,0.6-0.3h2.2l-2.1-3.6c-0.1-0.1-0.2-0.3-0.3-0.5c-0.1-0.2-0.1-0.4-0.1-0.6c0.1-0.3,0.2-0.5,0.3-0.7
			c0.2-0.2,0.4-0.3,0.9-0.3c0.2,0,0.5,0.1,0.7,0.3c0.2,0.1,0.4,0.3,0.5,0.5l2.3,4.3l2.6-4.3c0.1-0.2,0.3-0.3,0.5-0.5
			c0.2-0.1,0.4-0.2,0.7-0.2c0.2,0,0.3,0,0.4,0.1c0.1,0,0.2,0.1,0.3,0.2c0.1,0.1,0.2,0.2,0.2,0.3c0.1,0.1,0.1,0.3,0.1,0.5
			c0,0.3-0.1,0.6-0.3,0.8l-2.4,3.9h2.3c0.3,0,0.5,0.1,0.6,0.3c0.2,0.2,0.2,0.4,0.3,0.6c0,0.3-0.1,0.5-0.3,0.7
			c-0.2,0.2-0.4,0.3-0.6,0.3l-2.9,0v0.9h2.9c0.3,0,0.5,0.1,0.6,0.3c0.2,0.2,0.2,0.4,0.3,0.7c0,0.3-0.1,0.5-0.3,0.7
			c-0.2,0.2-0.4,0.3-0.6,0.3l-2.9,0v1.6c0,0.9-0.5,1.3-1.4,1.3c-0.5,0-0.8-0.1-1.1-0.3c-0.3-0.2-0.4-0.5-0.4-1V27.2L19.9,27.2z
			 M20.1,26.7"/>
	</g>
</g>
</svg>
